# Blender v2.79 (sub 0) OBJ File: 'monte-carlo.blend'
# www.blender.org
mtllib monte-carlo.mtl
o Cube_Cube.001
v -0.686259 -0.000018 0.241208
v -0.686259 0.632018 0.241208
v -0.824460 -0.000018 -0.375534
v -0.824460 0.632018 -0.375534
v -0.069516 -0.000018 0.103006
v -0.069516 0.632018 0.103006
v -0.207718 -0.000018 -0.513736
v -0.207718 0.632018 -0.513736
v -0.824460 -0.000018 -0.375534
v -0.824460 -0.000018 -0.375534
v -0.686259 -0.000018 0.241208
v -0.686259 -0.000018 0.241208
v -0.686259 0.632018 0.241208
v -0.686259 0.632018 0.241208
v -0.824460 0.632018 -0.375534
v -0.824460 0.632018 -0.375534
v -0.207718 -0.000018 -0.513736
v -0.207718 -0.000018 -0.513736
v -0.207718 0.632018 -0.513736
v -0.207718 0.632018 -0.513736
v -0.069516 -0.000018 0.103006
v -0.069516 -0.000018 0.103006
v -0.069516 0.632018 0.103006
v -0.069516 0.632018 0.103006
vn -0.9758 0.0000 0.2187
vn -0.2187 0.0000 -0.9758
vn 0.9758 0.0000 -0.2187
vn 0.2187 0.0000 0.9758
vn 0.0000 -1.0000 0.0000
vn 0.0000 1.0000 0.0000
usemtl Wall
s off
f 11//1 13//1 15//1 9//1
f 10//2 16//2 19//2 17//2
f 18//3 20//3 23//3 21//3
f 22//4 24//4 14//4 12//4
f 3//5 7//5 5//5 1//5
f 8//6 4//6 2//6 6//6
o Plane
v -1.000000 0.000000 1.000000
v 1.000000 0.000000 1.000000
v -1.000000 0.000000 -1.000000
v 1.000000 0.000000 -1.000000
vn 0.0000 1.0000 0.0000
usemtl Wall
s off
f 25//7 26//7 28//7 27//7
o Plane.001
v -1.000000 2.000000 1.000000
v -1.000000 0.000000 1.000000
v -1.000000 2.000000 -1.000000
v -1.000000 0.000000 -1.000000
vn 1.0000 0.0000 0.0000
usemtl Green_wall
s off
f 29//8 30//8 32//8 31//8
o Plane.002
v 1.000000 2.000000 -1.000000
v 1.000000 0.000000 -1.000000
v 1.000000 2.000000 1.000000
v 1.000000 0.000000 1.000000
vn -1.0000 -0.0000 0.0000
usemtl Red_wall
s off
f 33//9 34//9 36//9 35//9
o Plane.003
v -1.000000 2.000000 -1.000000
v -1.000000 -0.000000 -1.000000
v 1.000000 2.000000 -1.000000
v 1.000000 0.000000 -1.000000
vn 0.0000 0.0000 1.0000
usemtl Wall
s off
f 37//10 38//10 40//10 39//10
o Plane.004
v 1.000000 2.000000 1.000000
v -1.000000 2.000000 1.000000
v 1.000000 2.000000 -1.000000
v -1.000000 2.000000 -1.000000
v 1.000000 2.000000 0.000000
v 0.000000 2.000000 1.000000
v -1.000000 2.000000 0.000000
v 0.000000 2.000000 -1.000000
v 1.000000 2.000000 0.500000
v -0.500000 2.000000 1.000000
v -1.000000 2.000000 -0.500000
v 0.500000 2.000000 -1.000000
v 1.000000 2.000000 -0.500000
v 0.500000 2.000000 1.000000
v -1.000000 2.000000 0.500000
v -0.500000 2.000000 -1.000000
v 0.000000 2.000000 -0.500000
v 0.000000 2.000000 0.500000
v 0.500000 2.000000 0.000000
v -0.500000 2.000000 0.000000
v -0.500000 2.000000 0.500000
v 0.500000 2.000000 0.500000
v 0.500000 2.000000 -0.500000
v -0.500000 2.000000 -0.500000
vn -0.0000 -1.0000 0.0000
usemtl Wall
s off
f 62//11 59//11 63//11 53//11 45//11 49//11 41//11 54//11
f 55//11 47//11 51//11 64//11 60//11 61//11 50//11 42//11
f 46//11 50//11 61//11 58//11 62//11 54//11
f 64//11 51//11 44//11 56//11 48//11 52//11 43//11 53//11 63//11 57//11
usemtl Light
f 62//11 58//11 61//11 60//11 64//11 57//11 63//11 59//11
o Cube.001_Cube.002
v 0.285414 -0.000174 -0.149790
v 0.285414 1.628174 -0.149790
v 0.542217 -0.000174 -0.379541
v 0.542217 1.628174 -0.379541
v 0.515164 -0.000174 0.107013
v 0.515164 1.628174 0.107013
v 0.771968 -0.000174 -0.122738
v 0.771968 1.628174 -0.122738
v 0.542217 -0.000174 -0.379541
v 0.542217 -0.000174 -0.379541
v 0.285414 -0.000174 -0.149790
v 0.285414 -0.000174 -0.149790
v 0.285414 1.628174 -0.149790
v 0.285414 1.628174 -0.149790
v 0.542217 1.628174 -0.379541
v 0.542217 1.628174 -0.379541
v 0.771968 -0.000174 -0.122738
v 0.771968 -0.000174 -0.122738
v 0.771968 1.628174 -0.122738
v 0.771968 1.628174 -0.122738
v 0.515164 -0.000174 0.107013
v 0.515164 -0.000174 0.107013
v 0.515164 1.628174 0.107013
v 0.515164 1.628174 0.107013
vn -0.6668 0.0000 -0.7453
vn 0.7453 0.0000 -0.6668
vn 0.6668 0.0000 0.7453
vn -0.7453 0.0000 0.6668
vn 0.0000 -1.0000 -0.0000
vn 0.0000 1.0000 0.0000
usemtl Wall
s off
f 75//12 77//12 79//12 73//12
f 74//13 80//13 83//13 81//13
f 82//14 84//14 87//14 85//14
f 86//15 88//15 78//15 76//15
f 67//16 71//16 69//16 65//16
f 72//17 68//17 66//17 70//17
